<svg xmlns="http://www.w3.org/2000/svg" viewBox="0 0 400 240">
  <defs>
    <linearGradient id="bg" x1="0" y1="0" x2="1" y2="1">
      <stop offset="0%" stop-color="#1a1a2e"/>
      <stop offset="100%" stop-color="#16213e"/>
    </linearGradient>
  </defs>
  <rect width="400" height="240" fill="url(#bg)"/>
  <!-- clipboard outline -->
  <rect x="130" y="28" width="140" height="184" rx="10" fill="rgba(255,255,255,0.06)" stroke="rgba(255,140,0,0.4)" stroke-width="1.5"/>
  <!-- clip at top -->
  <rect x="168" y="20" width="64" height="18" rx="9" fill="#ff8c00" opacity="0.9"/>
  <!-- task rows -->
  <!-- row 1 checked -->
  <rect x="148" y="56" width="14" height="14" rx="3" fill="#ff8c00"/>
  <path d="M151,63 L154,67 L160,59" stroke="white" stroke-width="1.8" fill="none" stroke-linecap="round" stroke-linejoin="round"/>
  <rect x="170" y="60" width="72" height="7" rx="3" fill="rgba(255,255,255,0.55)"/>
  <!-- row 2 checked -->
  <rect x="148" y="82" width="14" height="14" rx="3" fill="#ff8c00"/>
  <path d="M151,89 L154,93 L160,85" stroke="white" stroke-width="1.8" fill="none" stroke-linecap="round" stroke-linejoin="round"/>
  <rect x="170" y="86" width="88" height="7" rx="3" fill="rgba(255,255,255,0.5)"/>
  <!-- row 3 in progress -->
  <rect x="148" y="108" width="14" height="14" rx="3" fill="none" stroke="#ff8c00" stroke-width="2"/>
  <rect x="170" y="112" width="64" height="7" rx="3" fill="rgba(255,255,255,0.4)"/>
  <rect x="238" y="112" width="24" height="7" rx="3" fill="rgba(255,140,0,0.5)"/>
  <!-- row 4 todo -->
  <rect x="148" y="134" width="14" height="14" rx="3" fill="none" stroke="rgba(255,255,255,0.2)" stroke-width="2"/>
  <rect x="170" y="138" width="80" height="7" rx="3" fill="rgba(255,255,255,0.2)"/>
  <!-- row 5 todo -->
  <rect x="148" y="160" width="14" height="14" rx="3" fill="none" stroke="rgba(255,255,255,0.2)" stroke-width="2"/>
  <rect x="170" y="164" width="56" height="7" rx="3" fill="rgba(255,255,255,0.2)"/>
  <!-- progress bar at bottom -->
  <rect x="148" y="188" width="104" height="8" rx="4" fill="rgba(255,255,255,0.1)"/>
  <rect x="148" y="188" width="62" height="8" rx="4" fill="#ff8c00" opacity="0.85"/>
  <text x="258" y="196" font-size="9" fill="rgba(255,255,255,0.5)" font-family="sans-serif">60%</text>
</svg>
