<svg xmlns="http://www.w3.org/2000/svg" viewBox="0 0 400 240" width="400" height="240">
  <defs>
    <linearGradient id="pmBg" x1="0" y1="0" x2="1" y2="1">
      <stop offset="0%" stop-color="#ff8533"/>
      <stop offset="100%" stop-color="#cc3300"/>
    </linearGradient>
    <filter id="shadow" x="-10%" y="-10%" width="120%" height="130%">
      <feDropShadow dx="0" dy="2" stdDeviation="3" flood-color="rgba(0,0,0,0.25)"/>
    </filter>
  </defs>

  <!-- Background -->
  <rect width="400" height="240" fill="url(#pmBg)"/>

  <!-- Subtle grid overlay -->
  <rect width="400" height="240" fill="none" stroke="rgba(255,255,255,0.04)" stroke-width="1"/>
  <line x1="0" y1="80" x2="400" y2="80" stroke="rgba(255,255,255,0.05)" stroke-width="1"/>
  <line x1="0" y1="160" x2="400" y2="160" stroke="rgba(255,255,255,0.05)" stroke-width="1"/>
  <line x1="133" y1="0" x2="133" y2="240" stroke="rgba(255,255,255,0.05)" stroke-width="1"/>
  <line x1="266" y1="0" x2="266" y2="240" stroke="rgba(255,255,255,0.05)" stroke-width="1"/>

  <!-- Column 1 header: To Do -->
  <rect x="28" y="34" width="104" height="172" rx="10" fill="rgba(0,0,0,0.18)" filter="url(#shadow)"/>
  <rect x="28" y="34" width="104" height="28" rx="10" fill="rgba(255,255,255,0.22)"/>
  <rect x="28" y="50" width="104" height="12" fill="rgba(255,255,255,0.22)"/>
  <circle cx="42" cy="48" r="5" fill="rgba(255,200,100,0.85)"/>
  <rect x="52" y="44" width="48" height="8" rx="3" fill="rgba(255,255,255,0.7)"/>
  <!-- Cards in col 1 -->
  <rect x="36" y="70" width="88" height="36" rx="6" fill="rgba(255,255,255,0.18)"/>
  <rect x="44" y="78" width="55" height="6" rx="2" fill="rgba(255,255,255,0.6)"/>
  <rect x="44" y="90" width="36" height="5" rx="2" fill="rgba(255,255,255,0.3)"/>
  <rect x="36" y="114" width="88" height="36" rx="6" fill="rgba(255,255,255,0.14)"/>
  <rect x="44" y="122" width="48" height="6" rx="2" fill="rgba(255,255,255,0.55)"/>
  <rect x="44" y="134" width="60" height="5" rx="2" fill="rgba(255,255,255,0.28)"/>
  <rect x="36" y="158" width="88" height="36" rx="6" fill="rgba(255,255,255,0.10)"/>
  <rect x="44" y="166" width="40" height="6" rx="2" fill="rgba(255,255,255,0.45)"/>
  <rect x="44" y="178" width="52" height="5" rx="2" fill="rgba(255,255,255,0.22)"/>

  <!-- Column 2 header: In Progress -->
  <rect x="148" y="34" width="104" height="172" rx="10" fill="rgba(0,0,0,0.22)" filter="url(#shadow)"/>
  <rect x="148" y="34" width="104" height="28" rx="10" fill="rgba(255,255,255,0.28)"/>
  <rect x="148" y="50" width="104" height="12" fill="rgba(255,255,255,0.28)"/>
  <circle cx="162" cy="48" r="5" fill="rgba(100,220,180,0.9)"/>
  <rect x="172" y="44" width="60" height="8" rx="3" fill="rgba(255,255,255,0.75)"/>
  <!-- Cards in col 2 -->
  <rect x="156" y="70" width="88" height="36" rx="6" fill="rgba(255,255,255,0.22)"/>
  <rect x="164" y="78" width="62" height="6" rx="2" fill="rgba(255,255,255,0.75)"/>
  <rect x="164" y="90" width="40" height="5" rx="2" fill="rgba(255,255,255,0.38)"/>
  <!-- Progress bar inside card -->
  <rect x="164" y="97" width="72" height="4" rx="2" fill="rgba(255,255,255,0.18)"/>
  <rect x="164" y="97" width="46" height="4" rx="2" fill="rgba(255,220,100,0.8)"/>
  <rect x="156" y="114" width="88" height="36" rx="6" fill="rgba(255,255,255,0.16)"/>
  <rect x="164" y="122" width="50" height="6" rx="2" fill="rgba(255,255,255,0.65)"/>
  <rect x="164" y="134" width="68" height="5" rx="2" fill="rgba(255,255,255,0.3)"/>

  <!-- Column 3 header: Done -->
  <rect x="268" y="34" width="104" height="172" rx="10" fill="rgba(0,0,0,0.16)" filter="url(#shadow)"/>
  <rect x="268" y="34" width="104" height="28" rx="10" fill="rgba(255,255,255,0.18)"/>
  <rect x="268" y="50" width="104" height="12" fill="rgba(255,255,255,0.18)"/>
  <circle cx="282" cy="48" r="5" fill="rgba(120,255,160,0.9)"/>
  <rect x="292" y="44" width="40" height="8" rx="3" fill="rgba(255,255,255,0.65)"/>
  <!-- Cards in col 3 -->
  <rect x="276" y="70" width="88" height="36" rx="6" fill="rgba(255,255,255,0.16)"/>
  <rect x="284" y="78" width="56" height="6" rx="2" fill="rgba(255,255,255,0.55)"/>
  <!-- Checkmark -->
  <circle cx="346" cy="86" r="7" fill="rgba(120,255,160,0.5)"/>
  <path d="M342,86 L345,90 L352,82" stroke="white" stroke-width="1.8" fill="none" stroke-linecap="round" stroke-linejoin="round"/>
  <rect x="276" y="114" width="88" height="36" rx="6" fill="rgba(255,255,255,0.12)"/>
  <rect x="284" y="122" width="44" height="6" rx="2" fill="rgba(255,255,255,0.45)"/>
  <circle cx="346" cy="130" r="7" fill="rgba(120,255,160,0.5)"/>
  <path d="M342,130 L345,134 L352,126" stroke="white" stroke-width="1.8" fill="none" stroke-linecap="round" stroke-linejoin="round"/>
</svg>
